<svg xmlns="http://www.w3.org/2000/svg" width="86.073" height="47.009" viewBox="0 0 86.073 47.009"><path d="M2531.4,1150.178l-7.737-2.891v-2.628a12.905,12.905,0,0,0,4.308-9.842c0-.321-.021-.636-.042-.951a1.579,1.579,0,0,0,0-.183c0-.008,0-.016-.005-.025-.5-6.181-4.976-11.035-10.406-11.035-5.159,0-9.447,4.383-10.295,10.122a1.769,1.769,0,0,0-.044.336,14.2,14.2,0,0,0-.119,1.736,12.781,12.781,0,0,0,4.8,10.243v2.224l-.737.274a7.059,7.059,0,0,0-4.578-5.491l-7.737-2.89v-2.628a12.9,12.9,0,0,0,4.308-9.841c0-.322-.021-.637-.042-.952a1.641,1.641,0,0,0,0-.183c0-.008,0-.016,0-.024-.5-6.183-4.977-11.037-10.407-11.037-5.159,0-9.447,4.385-10.294,10.125a1.748,1.748,0,0,0-.044.333,14.161,14.161,0,0,0-.119,1.737,12.783,12.783,0,0,0,4.8,10.242v2.223l-7.775,2.885a7.015,7.015,0,0,0-4.557,5.617l-.464-.174v-2.627a12.906,12.906,0,0,0,4.308-9.842c0-.321-.021-.637-.042-.952a1.7,1.7,0,0,0,0-.183c0-.008,0-.016-.006-.024-.5-6.183-4.976-11.037-10.406-11.037-5.16,0-9.448,4.385-10.295,10.125a1.745,1.745,0,0,0-.044.333,14.205,14.205,0,0,0-.119,1.737,12.78,12.78,0,0,0,4.8,10.242v2.224l-7.775,2.885A7.027,7.027,0,0,0,2450,1157v2.756a1.766,1.766,0,0,0,1.766,1.766h33.084a1.766,1.766,0,0,0,1.766-1.766V1157a6.975,6.975,0,0,0-1.137-3.8h14.958a7.049,7.049,0,0,0-.981,3.587v2.757a1.766,1.766,0,0,0,1.766,1.766h33.084a1.766,1.766,0,0,0,1.766-1.766v-2.757A7.046,7.046,0,0,0,2531.4,1150.178Zm-13.886-24.022c3.125,0,5.77,2.6,6.628,6.169-1.406.081-2.545-.473-3.765-2.606a1.791,1.791,0,0,0-1.567-.89,1.767,1.767,0,0,0-1.532.949c-.581,1.113-2.881,2.4-4.978,2.4a5.668,5.668,0,0,1-1.337-.148C2511.9,1128.622,2514.479,1126.156,2517.519,1126.156Zm-6.9,9.4a9.412,9.412,0,0,0,1.681.16,10.806,10.806,0,0,0,6.394-2.273,6.593,6.593,0,0,0,5.184,2.423c.166,0,.338-.016.508-.026a8.983,8.983,0,0,1-3.446,6.5c-.046.03-.087.065-.13.1a5.831,5.831,0,0,1-3.3,1.046C2513.9,1143.48,2510.924,1139.987,2510.624,1135.555Zm-17.962-17.51c3.125,0,5.771,2.6,6.629,6.17-1.407.081-2.545-.473-3.764-2.607a1.766,1.766,0,0,0-3.1.059c-.58,1.112-2.881,2.4-4.979,2.4a5.626,5.626,0,0,1-1.336-.148C2487.041,1120.511,2489.623,1118.046,2492.662,1118.046Zm-6.894,9.4a9.4,9.4,0,0,0,1.679.16,10.8,10.8,0,0,0,6.394-2.274,6.6,6.6,0,0,0,5.185,2.423c.165,0,.337-.016.507-.026a8.988,8.988,0,0,1-3.446,6.5c-.046.03-.086.064-.129.1a5.827,5.827,0,0,1-3.3,1.046C2489.042,1135.37,2486.068,1131.878,2485.768,1127.446Zm-7.634,21.229a3.494,3.494,0,0,1,2.307-3.3l8.947-3.319a1.765,1.765,0,0,0,1.152-1.655v-1.754a8.854,8.854,0,0,0,4.739-.149v1.9a1.766,1.766,0,0,0,1.148,1.654l8.909,3.328a3.562,3.562,0,0,1,2.349,3.29v.16l-2.237.83H2480l-1.865-.7Zm-10.072-22.3c3.125,0,5.77,2.606,6.629,6.171-1.407.081-2.546-.475-3.765-2.608a1.8,1.8,0,0,0-1.567-.89,1.769,1.769,0,0,0-1.532.95c-.581,1.112-2.881,2.405-4.978,2.405a5.629,5.629,0,0,1-1.337-.148C2462.44,1128.836,2465.022,1126.371,2468.062,1126.371Zm-6.9,9.4a9.407,9.407,0,0,0,1.681.16,10.805,10.805,0,0,0,6.393-2.273,6.6,6.6,0,0,0,5.185,2.423c.165,0,.337-.016.507-.026a8.984,8.984,0,0,1-3.446,6.5c-.046.03-.087.065-.13.1a5.827,5.827,0,0,1-3.3,1.046C2464.442,1143.7,2461.468,1140.2,2461.167,1135.771Zm21.917,22.219h-29.551V1157a3.494,3.494,0,0,1,2.308-3.3l8.947-3.319a1.766,1.766,0,0,0,1.152-1.655v-1.754a8.843,8.843,0,0,0,4.739-.148v1.9a1.766,1.766,0,0,0,1.148,1.655l8.908,3.328a3.561,3.561,0,0,1,2.349,3.289Zm49.457-.215h-29.551v-.991a3.492,3.492,0,0,1,2.308-3.3l8.947-3.319a1.767,1.767,0,0,0,1.152-1.656v-1.754a8.841,8.841,0,0,0,4.739-.148v1.9a1.766,1.766,0,0,0,1.148,1.655l8.909,3.328a3.56,3.56,0,0,1,2.348,3.288Z" transform="translate(-2450 -1114.513)" fill="#3b3c40"/></svg>