<svg xmlns="http://www.w3.org/2000/svg" width="58.868" height="44.514" viewBox="0 0 58.868 44.514"><path d="M2507.524,1057.715l-7.737-2.89V1052.2a12.9,12.9,0,0,0,4.308-9.841c0-.323-.021-.64-.042-.956a1.538,1.538,0,0,0,0-.177c0-.008,0-.016,0-.025-.5-6.183-4.976-11.037-10.407-11.037-5.158,0-9.446,4.383-10.293,10.122a1.708,1.708,0,0,0-.045.336,14.159,14.159,0,0,0-.119,1.737,12.782,12.782,0,0,0,4.8,10.242v1.061a6.984,6.984,0,0,0-2.709-1.774l-7.738-2.891v-2.628a12.9,12.9,0,0,0,4.308-9.842c0-.331-.02-.656-.043-.98,0-.052,0-.1,0-.154,0-.007,0-.013,0-.02-.5-6.184-4.976-11.04-10.407-11.04-5.158,0-9.446,4.383-10.294,10.122a1.731,1.731,0,0,0-.044.336,14.157,14.157,0,0,0-.119,1.737,12.781,12.781,0,0,0,4.8,10.243v2.224l-7.775,2.885a7.025,7.025,0,0,0-4.633,6.615v2.756a1.767,1.767,0,0,0,1.766,1.766H2475.7a7.035,7.035,0,0,0-.127,1.308v2.756a1.766,1.766,0,0,0,1.767,1.766h33.083a1.766,1.766,0,0,0,1.767-1.766v-2.756A7.049,7.049,0,0,0,2507.524,1057.715Zm-13.887-24.021c3.125,0,5.771,2.6,6.629,6.169-1.406.08-2.545-.473-3.764-2.606a1.741,1.741,0,0,0-1.568-.89,1.766,1.766,0,0,0-1.532.949c-.58,1.112-2.881,2.4-4.979,2.4a5.664,5.664,0,0,1-1.336-.148C2488.017,1036.159,2490.6,1033.694,2493.638,1033.694Zm-6.894,9.4a9.329,9.329,0,0,0,1.679.16,10.806,10.806,0,0,0,6.394-2.273A6.6,6.6,0,0,0,2500,1043.4c.166,0,.339-.016.509-.027a8.986,8.986,0,0,1-3.446,6.5c-.046.03-.086.064-.129.1a5.823,5.823,0,0,1-3.3,1.046C2490.019,1051.018,2487.044,1047.525,2486.744,1043.093Zm-15.356-15.229c3.125,0,5.771,2.6,6.629,6.169-1.408.081-2.546-.472-3.765-2.606a1.767,1.767,0,0,0-3.1.059c-.579,1.112-2.88,2.4-4.978,2.4a5.665,5.665,0,0,1-1.336-.148C2465.767,1030.329,2468.349,1027.864,2471.387,1027.864Zm-6.894,9.4a9.42,9.42,0,0,0,1.68.16,10.8,10.8,0,0,0,6.394-2.273,6.6,6.6,0,0,0,5.184,2.423c.165,0,.338-.016.509-.027a8.987,8.987,0,0,1-3.444,6.5c-.047.03-.089.066-.134.1a5.828,5.828,0,0,1-3.294,1.044C2467.769,1045.188,2464.794,1041.695,2464.493,1037.263Zm-7.635,22.219v-.99a3.493,3.493,0,0,1,2.308-3.3l8.947-3.319a1.767,1.767,0,0,0,1.152-1.656v-1.754a8.853,8.853,0,0,0,4.738-.149v1.9a1.766,1.766,0,0,0,1.148,1.655l8.91,3.328a3.449,3.449,0,0,1,1.108.663l-4.962,1.841a6.924,6.924,0,0,0-2.708,1.775Zm51.8,5.83H2479.11v-.99a3.494,3.494,0,0,1,2.307-3.3l8.947-3.318a1.766,1.766,0,0,0,1.152-1.656V1054.3a8.843,8.843,0,0,0,4.739-.148v1.9a1.767,1.767,0,0,0,1.148,1.655l8.909,3.328a3.562,3.562,0,0,1,2.349,3.289Z" transform="translate(-2453.326 -1024.331)" fill="#3b3c40"/></svg>